<svg width="24" height="24" viewBox="0 0 24 24" fill="none" xmlns="http://www.w3.org/2000/svg">
<path d="M12 24C10.34 24 8.78 23.685 7.32 23.055C5.86 22.425 4.59 21.57 3.51 20.49C2.43 19.41 1.575 18.14 0.945 16.68C0.315 15.22 0 13.66 0 12C0 10.34 0.315 8.78 0.945 7.32C1.575 5.86 2.43 4.59 3.51 3.51C4.59 2.43 5.86 1.575 7.32 0.945C8.78 0.315 10.34 0 12 0C13.66 0 15.22 0.315 16.68 0.945C18.14 1.575 19.41 2.43 20.49 3.51C21.57 4.59 22.425 5.86 23.055 7.32C23.685 8.78 24 10.34 24 12V13.74C24 14.92 23.595 15.925 22.785 16.755C21.975 17.585 20.98 18 19.8 18C19.1 18 18.44 17.85 17.82 17.55C17.2 17.25 16.68 16.82 16.26 16.26C15.68 16.84 15.025 17.275 14.295 17.565C13.565 17.855 12.8 18 12 18C10.34 18 8.925 17.415 7.755 16.245C6.585 15.075 6 13.66 6 12C6 10.34 6.585 8.925 7.755 7.755C8.925 6.585 10.34 6 12 6C13.66 6 15.075 6.585 16.245 7.755C17.415 8.925 18 10.34 18 12V13.74C18 14.26 18.17 14.7 18.51 15.06C18.85 15.42 19.28 15.6 19.8 15.6C20.32 15.6 20.75 15.42 21.09 15.06C21.43 14.7 21.6 14.26 21.6 13.74V12C21.6 9.32 20.67 7.05 18.81 5.19C16.95 3.33 14.68 2.4 12 2.4C9.32 2.4 7.05 3.33 5.19 5.19C3.33 7.05 2.4 9.32 2.4 12C2.4 14.68 3.33 16.95 5.19 18.81C7.05 20.67 9.32 21.6 12 21.6H18V24H12ZM12 15.6C13 15.6 13.85 15.25 14.55 14.55C15.25 13.85 15.6 13 15.6 12C15.6 11 15.25 10.15 14.55 9.45C13.85 8.75 13 8.4 12 8.4C11 8.4 10.15 8.75 9.45 9.45C8.75 10.15 8.4 11 8.4 12C8.4 13 8.75 13.85 9.45 14.55C10.15 15.25 11 15.6 12 15.6Z" fill="white"/>
</svg>
