<svg width="20" height="20" viewBox="0 0 20 20" fill="none" xmlns="http://www.w3.org/2000/svg">
<path d="M9.99999 0C4.49999 0 0 4.50803 0 10.0603C0 15.0803 3.65999 19.247 8.43999 20V12.9719H5.89999V10.0603H8.43999V7.84136C8.43999 5.32128 9.92999 3.93574 12.22 3.93574C13.31 3.93574 14.45 4.1265 14.45 4.1265V6.60642H13.19C11.95 6.60642 11.56 7.37951 11.56 8.1727V10.0603H14.34L13.89 12.9719H11.56V20C13.9164 19.6263 16.0622 18.4192 17.6099 16.5964C19.1576 14.7737 20.0054 12.4554 20 10.0603C20 4.50803 15.5 0 9.99999 0Z" fill="white"/>
</svg>
