<svg width="22" height="20" viewBox="0 0 22 20" fill="none" xmlns="http://www.w3.org/2000/svg">
<path d="M11 4.74225C9.88291 4.74225 8.7909 5.03579 7.86211 5.5857C6.93328 6.13562 6.20935 6.91726 5.78186 7.83173C5.35436 8.74624 5.24252 9.75255 5.46045 10.7233C5.67837 11.6941 6.21631 12.5859 7.00621 13.2859C7.7961 13.9857 8.80247 14.4623 9.89806 14.6554C10.9938 14.8486 12.1293 14.7494 13.1614 14.3707C14.1935 13.9919 15.0756 13.3504 15.6962 12.5275C16.3169 11.7044 16.6481 10.7368 16.6481 9.74694C16.6499 9.08925 16.5051 8.43778 16.2219 7.82989C15.9386 7.22191 15.5227 6.66956 14.9979 6.20452C14.473 5.73946 13.8497 5.37088 13.1636 5.11994C12.4775 4.86901 11.7422 4.74065 11 4.74225ZM11 13.0061C10.2725 13.0061 9.56138 12.8149 8.95648 12.4568C8.35173 12.0988 7.88023 11.5898 7.60185 10.9942C7.32346 10.3986 7.25062 9.7434 7.39254 9.1111C7.53446 8.47892 7.88477 7.89813 8.39912 7.44234C8.9135 6.98658 9.56896 6.67618 10.2824 6.55043C10.996 6.42467 11.7355 6.48921 12.4076 6.73589C13.0797 6.98256 13.6542 7.40034 14.0582 7.93621C14.4624 8.4722 14.6781 9.10231 14.6781 9.74694C14.6781 10.6113 14.2906 11.4404 13.6009 12.0515C12.9111 12.6627 11.9755 13.0061 11 13.0061ZM18.2048 4.53474C18.2048 4.77618 18.124 5.01218 17.9726 5.2129C17.8212 5.41364 17.6061 5.5701 17.3544 5.66248C17.1027 5.75487 16.8257 5.77904 16.5584 5.73195C16.2912 5.68485 16.0458 5.56859 15.8531 5.39788C15.6605 5.22717 15.5292 5.00968 15.476 4.77289C15.4229 4.5361 15.4501 4.29067 15.5544 4.06762C15.6587 3.84458 15.8353 3.65394 16.0618 3.51981C16.2884 3.38568 16.5547 3.31408 16.8272 3.31408C17.1925 3.31408 17.543 3.44269 17.8013 3.67162C18.0597 3.90053 18.2048 4.21101 18.2048 4.53474ZM21.938 5.7554C21.9781 4.23792 21.3393 2.76796 20.1609 1.6662C18.9241 0.60873 17.2644 0.0292469 15.546 0.0549296C13.7552 -0.0183099 8.24483 -0.0183099 6.45398 0.0549296C4.74193 0.0220817 3.08411 0.587759 1.83907 1.62958C0.660744 2.73134 0.0219311 4.2013 0.0619913 5.71878C-0.0206638 7.30562 -0.0206638 12.1883 0.0619913 13.7751C0.0219311 15.2926 0.660744 16.7625 1.83907 17.8643C3.08411 18.9061 4.74193 19.4718 6.45398 19.439C8.27238 19.5366 13.7276 19.5366 15.546 19.439C17.2586 19.4745 18.9175 18.9085 20.1609 17.8643C21.3393 16.7625 21.9781 15.2926 21.938 13.7751C22.0207 12.1883 22.0207 7.30562 21.938 5.71878V5.7554ZM19.5961 15.5206C19.409 15.9406 19.1268 16.3218 18.7665 16.641C18.4063 16.9602 17.9761 17.2103 17.5022 17.376C15.3636 17.7592 13.1774 17.8906 11 17.7667C8.82727 17.8907 6.64548 17.7593 4.51159 17.376C4.03779 17.2103 3.60745 16.9602 3.24727 16.641C2.88707 16.3218 2.60471 15.9406 2.41766 15.5206C1.83907 14.2267 1.96306 11.1751 1.96306 9.75914C1.96306 8.34318 1.83907 5.27934 2.41766 3.99765C2.59943 3.57368 2.87978 3.18832 3.24052 2.86657C3.60125 2.54483 4.03431 2.29388 4.51159 2.13005C6.64548 1.74674 8.82727 1.61539 11 1.73944C13.1774 1.6156 15.3636 1.74694 17.5022 2.13005C17.9761 2.29579 18.4063 2.54599 18.7665 2.86515C19.1268 3.1843 19.409 3.56563 19.5961 3.98545C20.1747 5.27934 20.0369 8.33097 20.0369 9.74694C20.0369 11.1629 20.1747 14.2267 19.5961 15.5084V15.5206Z" fill="white"/>
</svg>
