<svg width="16" height="25" viewBox="0 0 16 25" fill="none" xmlns="http://www.w3.org/2000/svg">
<path d="M2.24416 24.25C1.62701 24.25 1.0987 24.0364 0.659221 23.6091C0.21974 23.1818 0 22.6682 0 22.0682V2.43182C0 1.83182 0.21974 1.31818 0.659221 0.890909C1.0987 0.463636 1.62701 0.25 2.24416 0.25H13.4649C14.0821 0.25 14.6104 0.463636 15.0499 0.890909C15.4894 1.31818 15.7091 1.83182 15.7091 2.43182V22.0682C15.7091 22.6682 15.4894 23.1818 15.0499 23.6091C14.6104 24.0364 14.0821 24.25 13.4649 24.25H2.24416ZM2.24416 20.9773V22.0682H13.4649V20.9773H2.24416ZM2.24416 18.7955H13.4649V5.70455H2.24416V18.7955ZM2.24416 3.52273H13.4649V2.43182H2.24416V3.52273Z" fill="white"/>
</svg>
