<svg width="26" height="19" viewBox="0 0 26 19" fill="none" xmlns="http://www.w3.org/2000/svg">
<path d="M5.88843 19C4.90702 19 4.07283 18.6536 3.38585 17.9609C2.69886 17.2682 2.35537 16.4271 2.35537 15.4375H0V2.375C0 1.72187 0.23063 1.16276 0.69189 0.697656C1.15315 0.232552 1.70764 0 2.35537 0H18.843V4.75H22.376L25.9091 9.5V15.4375H23.5537C23.5537 16.4271 23.2102 17.2682 22.5232 17.9609C21.8363 18.6536 21.0021 19 20.0207 19C19.0393 19 18.2051 18.6536 17.5181 17.9609C16.8311 17.2682 16.4876 16.4271 16.4876 15.4375H9.42149C9.42149 16.4271 9.078 17.2682 8.39101 17.9609C7.70403 18.6536 6.86983 19 5.88843 19ZM5.88843 16.625C6.22211 16.625 6.50181 16.5112 6.72753 16.2836C6.95325 16.056 7.06612 15.774 7.06612 15.4375C7.06612 15.101 6.95325 14.819 6.72753 14.5914C6.50181 14.3638 6.22211 14.25 5.88843 14.25C5.55475 14.25 5.27505 14.3638 5.04933 14.5914C4.82361 14.819 4.71074 15.101 4.71074 15.4375C4.71074 15.774 4.82361 16.056 5.04933 16.2836C5.27505 16.5112 5.55475 16.625 5.88843 16.625ZM2.35537 13.0625H3.29752C3.6312 12.7063 4.01395 12.4193 4.44576 12.2016C4.87758 11.9839 5.35847 11.875 5.88843 11.875C6.41839 11.875 6.89928 11.9839 7.33109 12.2016C7.76291 12.4193 8.14566 12.7063 8.47934 13.0625H16.4876V2.375H2.35537V13.0625ZM20.0207 16.625C20.3543 16.625 20.634 16.5112 20.8598 16.2836C21.0855 16.056 21.1983 15.774 21.1983 15.4375C21.1983 15.101 21.0855 14.819 20.8598 14.5914C20.634 14.3638 20.3543 14.25 20.0207 14.25C19.687 14.25 19.4073 14.3638 19.1816 14.5914C18.9558 14.819 18.843 15.101 18.843 15.4375C18.843 15.774 18.9558 16.056 19.1816 16.2836C19.4073 16.5112 19.687 16.625 20.0207 16.625ZM18.843 10.6875H23.8481L21.1983 7.125H18.843V10.6875Z" fill="white"/>
</svg>
