<svg width="24" height="24" viewBox="0 0 24 24" fill="none" xmlns="http://www.w3.org/2000/svg">
<path d="M12.213 0C5.71307 0 0.424969 5.24836 0.424969 11.6995C0.424969 13.786 0.983358 15.8284 2.04115 17.6159L0.0165014 23.5883C-0.0212129 23.6996 0.00683904 23.8227 0.0892027 23.9066C0.148657 23.9673 0.229307 24 0.31167 24C0.343229 24 0.375021 23.9952 0.406034 23.9854L6.63357 22.0064C8.33772 22.917 10.2638 23.3976 12.2131 23.3976C18.7124 23.3977 24 18.1498 24 11.6995C24 5.24836 18.7124 0 12.213 0ZM12.213 20.9606C10.3788 20.9606 8.60227 20.4309 7.07515 19.4289C7.0238 19.3951 6.96419 19.3778 6.90419 19.3778C6.87248 19.3778 6.84068 19.3826 6.80975 19.3925L3.69014 20.3841L4.6972 17.413C4.72977 17.3169 4.71349 17.2108 4.65349 17.1288C3.49058 15.5398 2.87585 13.6625 2.87585 11.6995C2.87585 6.59221 7.06448 2.43709 12.2129 2.43709C17.3608 2.43709 21.5489 6.59221 21.5489 11.6995C21.549 16.8061 17.3609 20.9606 12.213 20.9606Z" fill="white"/>
</svg>
